<svg xmlns="http://www.w3.org/2000/svg" width="1080" height="1080" viewBox="0 0 1080 1080" role="img" aria-label="Template de post UseCognia">
  <rect width="1080" height="1080" fill="#FBFBF8"/>
  <rect x="78" y="78" width="924" height="924" rx="28" fill="#FFFFFF" stroke="#E7E2D8"/>
  <g transform="translate(108 108) scale(0.45)">
    <path d="M56 4C29.5 4 9.5 22.6 9.5 42.4S29.5 80.8 56 80.8" fill="none" stroke="#2F7657" stroke-width="17" stroke-linecap="round"/>
    <path d="M57.2 20.2c10.7 0 19.8 8.4 20.5 19.1 6.8 1.9 11.9 8.1 11.9 15.6 0 8.6-6.8 15.9-15.4 16.3" fill="none" stroke="#4DA8DA" stroke-width="6.5" stroke-linecap="round" stroke-linejoin="round"/>
    <path d="M56 29.5v37.2M56 42.3l18.6-10.5M56 42.3l19.8 11.6M56 58.6l14 9.3" fill="none" stroke="#244D3D" stroke-width="5.5" stroke-linecap="round"/>
    <circle cx="56" cy="42.3" r="7.2" fill="#244D3D"/>
    <circle cx="74.6" cy="31.8" r="7.2" fill="#244D3D"/>
    <circle cx="75.8" cy="53.9" r="7.2" fill="#244D3D"/>
    <circle cx="70" cy="67.9" r="7.2" fill="#244D3D"/>
    <circle cx="56" cy="58.6" r="7.2" fill="#244D3D"/>
  </g>
  <text x="175" y="144" font-family="Inter, Arial, sans-serif" font-size="34" font-weight="750" fill="#1D352D">Use<tspan fill="#2F7657">Cognia</tspan></text>
  <text x="108" y="280" font-family="Inter, Arial, sans-serif" font-size="72" font-weight="760" fill="#244D3D">
    <tspan x="108" dy="0">Rotina clinica</tspan>
    <tspan x="108" dy="86">mais organizada</tspan>
  </text>
  <text x="108" y="478" font-family="Inter, Arial, sans-serif" font-size="34" font-weight="450" fill="#37332E">
    <tspan x="108" dy="0">Agenda, pacientes, evolucoes e</tspan>
    <tspan x="108" dy="48">financeiro em um so lugar.</tspan>
  </text>
  <rect x="108" y="642" width="864" height="194" rx="22" fill="#D9EFE4"/>
  <text x="148" y="716" font-family="Inter, Arial, sans-serif" font-size="34" font-weight="700" fill="#244D3D">Post base</text>
  <text x="148" y="772" font-family="Inter, Arial, sans-serif" font-size="28" font-weight="450" fill="#37332E">Troque este texto por um insight curto para psicologas.</text>
  <rect x="108" y="900" width="326" height="66" rx="16" fill="#2F7657"/>
  <text x="140" y="943" font-family="Inter, Arial, sans-serif" font-size="26" font-weight="700" fill="#FFFFFF">Teste por 7 dias</text>
  <text x="766" y="942" text-anchor="end" font-family="Inter, Arial, sans-serif" font-size="24" font-weight="600" fill="#7C776B">usecognia.com.br</text>
</svg>
