<svg xmlns="http://www.w3.org/2000/svg" width="1080" height="1350" viewBox="0 0 1080 1350" role="img">
  <rect width="1080" height="1350" fill="#FBFBF8"/>
  <rect x="36" y="36" width="1008" height="1278" rx="42" fill="#FFFFFF" stroke="#E7E2D8" stroke-width="2"/>
  
  <g transform="translate(84 78) scale(0.64)">
    <path d="M56 4C29.5 4 9.5 22.6 9.5 42.4S29.5 80.8 56 80.8" fill="none" stroke="#2F7657" stroke-width="17" stroke-linecap="round"/>
    <path d="M57.2 20.2c10.7 0 19.8 8.4 20.5 19.1 6.8 1.9 11.9 8.1 11.9 15.6 0 8.6-6.8 15.9-15.4 16.3" fill="none" stroke="#4DA8DA" stroke-width="6.5" stroke-linecap="round" stroke-linejoin="round"/>
    <path d="M56 29.5v37.2M56 42.3l18.6-10.5M56 42.3l19.8 11.6M56 58.6l14 9.3" fill="none" stroke="#244D3D" stroke-width="5.5" stroke-linecap="round"/>
    <circle cx="56" cy="42.3" r="7.2" fill="#244D3D"/><circle cx="74.6" cy="31.8" r="7.2" fill="#244D3D"/><circle cx="75.8" cy="53.9" r="7.2" fill="#244D3D"/><circle cx="70" cy="67.9" r="7.2" fill="#244D3D"/><circle cx="56" cy="58.6" r="7.2" fill="#244D3D"/>
  </g>
  <text x="133.92000000000002" y="117.03999999999999" font-family="Inter, Arial, sans-serif" font-size="21.76" font-weight="760" fill="#37332E">Use<tspan fill="#2F7657">Cognia</tspan></text>
  <text x="84" y="216" font-family="Inter, Arial, sans-serif" font-size="24" font-weight="830" letter-spacing="4" fill="#2F7657">PRONTUÁRIO DIGITAL</text>
  <text x="84" y="330" text-anchor="start" font-family="Inter, Arial, sans-serif" font-size="76" font-weight="860" fill="#1D352D"><tspan x="84" dy="0">O histórico do</tspan><tspan x="84" dy="86">paciente não deveria</tspan><tspan x="84" dy="86">ficar espalhado.</tspan></text>
  <text x="84" y="545" text-anchor="start" font-family="Inter, Arial, sans-serif" font-size="34" font-weight="520" fill="#37332E"><tspan x="84" dy="0">A continuidade do cuidado depende de</tspan><tspan x="84" dy="45">registro, contexto e acesso rápido.</tspan></text>
  
      <rect x="130" y="684" width="820" height="430" rx="34" fill="#FFFFFF" stroke="#E7E2D8" stroke-width="3"/>
      <rect x="178" y="734" width="248" height="328" rx="24" fill="#D9EFE4"/>
      <text x="218" y="794" font-family="Inter, Arial, sans-serif" font-size="31" font-weight="820" fill="#1D352D">Paciente</text>
      <text x="218" y="848" font-family="Inter, Arial, sans-serif" font-size="24" font-weight="650" fill="#37332E">Histórico</text>
      <text x="218" y="900" font-family="Inter, Arial, sans-serif" font-size="24" font-weight="650" fill="#37332E">Evoluções</text>
      <text x="218" y="952" font-family="Inter, Arial, sans-serif" font-size="24" font-weight="650" fill="#37332E">Documentos</text>
      <path d="M502 766h340M502 836h284M502 906h360M502 976h230" stroke="#E7E2D8" stroke-width="22" stroke-linecap="round"/>
      <path d="M502 766h170M502 836h220M502 906h130M502 976h190" stroke="#4DA8DA" stroke-width="10" stroke-linecap="round"/>
      <rect x="530" y="1020" width="278" height="54" rx="16" fill="#1D352D"/>
      <text x="669" y="1055" text-anchor="middle" font-family="Inter, Arial, sans-serif" font-size="22" font-weight="800" fill="#FFFFFF">Tudo em um lugar</text>
  
  <rect x="84" y="1192" width="360" height="72" rx="20" fill="#2F7657"/>
  <text x="264" y="1238" text-anchor="middle" font-family="Inter, Arial, sans-serif" font-size="27" font-weight="780" fill="#FFFFFF">Organizar agora</text>
  <text x="996" y="1236" text-anchor="end" font-family="Inter, Arial, sans-serif" font-size="24" font-weight="650" fill="#7C776B">usecognia.com.br</text>
  </svg>